<svg width="600" height="168" viewBox="0 0 600 168" fill="none" xmlns="http://www.w3.org/2000/svg">
<path d="M82.2666 4.66666C16.1333 28.6667 -13.3334 69.0667 6.13331 109.067C14 125.067 33.4666 142.4 57.3333 154.4C66.6666 159.067 90 168 92.4 168C92.9333 168 88.4 165.6 82.2666 162.667C54 149.333 32.9333 130.933 23.2 111.333C18.4 101.6 17.4666 98.5333 16.9333 89.4667C14.9333 53.8667 40.2666 24.9333 94 1.59999C101.067 -1.46668 94.1333 0.399991 82.2666 4.66666Z" fill="#BC4749"/>
<path d="M520.133 8.53327C563.867 30.1333 588 63.0666 582.267 93.4666C577.333 120.133 555.6 143.6 519.067 161.333C504 168.8 503.733 169.733 518.267 164.533C554.8 151.333 582.533 130.8 593.333 108.933C612.533 69.9999 584.133 29.9999 520.4 6.13327C513.333 3.4666 506.933 1.33327 506.4 1.33327C505.867 1.33327 512 4.53327 520.133 8.53327Z" fill="#BC4749"/>
<path d="M143.733 35.2C140.667 37.8667 140 39.4667 140 44.4C140 52.8 143.2 56 151.333 56C159.733 56 163.333 52.2667 163.333 43.7333C163.333 38.6667 162.667 37.0667 159.867 34.8C155.067 31.0667 148.4 31.2 143.733 35.2Z" fill="#BC4749"/>
<path d="M453.2 35.0666C448.4 39.2 447.867 49.0666 452.133 53.4666C456.133 57.4666 465.2 57.3333 469.467 53.2C474 48.9333 474 39.0666 469.6 34.9333C465.333 30.9333 458 31.0666 453.2 35.0666Z" fill="#BC4749"/>
<path d="M196 35.8667L185.333 36.6667V80.9333V125.333H196.933H208.533L208.933 112L209.333 98.6667L215.333 112.4L221.333 126L229.333 125.867C239.2 125.733 247.333 124.267 247.333 122.667C247.333 122 243.733 114.8 239.2 106.8L231.067 92L237.067 81.7333C240.267 76 243.6 70 244.533 68.2667L246.133 65.3333H233.733L221.333 65.4667L216.8 75.4667C208.533 93.3333 208.533 93.3333 208.933 62.2667C209.2 44.4 208.8 34.8 208 34.9333C207.333 35.0667 201.867 35.4667 196 35.8667Z" fill="#BC4749"/>
<path d="M50.1334 56.2667C52.1334 63.8667 56.8 80.8 60.4 94C64 107.2 67.3334 119.6 67.8667 121.6L68.6667 125.333H84.4H100L111.867 85.6C118.4 63.8667 124 45.2 124.4 44.2667C124.8 43.0667 122 42.6667 112.8 42.6667H100.667L100 46.2667C98.8 52.5334 90 88.2667 87.8667 95.6C86.6667 99.4667 85.2 102.667 84.5334 102.667C83.8667 102.667 83.3334 102.267 83.3334 101.6C83.3334 101.067 80.6667 87.7334 77.4667 72L71.6 43.3334L59.0667 42.9334L46.4 42.5334L50.1334 56.2667Z" fill="#BC4749"/>
<path d="M277.333 51.3333L266.667 54.2667L266.267 59.7333C265.867 64.9333 265.6 65.3333 261.867 65.3333C258 65.3333 258 65.4667 258 72.6667C258 79.8667 258 80 262 80H266V98.1333V116.267L269.733 120C276.4 126.667 287.467 128 296.8 123.2C300.267 121.467 302 116.933 302 109.733C302 106.8 301.6 106.533 298 107.333C295.867 107.867 292.8 107.867 291.333 107.333C288.933 106.533 288.667 105.333 288.667 93.2V80H295.333C302 80 302 80 302 75.6C302 73.3333 302.4 70 302.8 68.2667C303.6 65.4667 303.2 65.3333 296.8 65.3333H290V56.6667C290 51.8667 289.6 48.1333 289.067 48.1333C288.4 48.2667 283.2 49.6 277.333 51.3333Z" fill="#BC4749"/>
<path d="M514 64.2666C510 64.8 504.267 66 501.333 66.9333L496 68.8L496.267 76C496.667 85.2 498 86.4 503.867 83.7333C509.867 80.8 517.067 79.4666 520.667 80.6666C522.8 81.3333 523.333 82.4 523.067 85.0666C522.667 88.4 522.133 88.6666 511.467 90.1333C498.8 92 494.133 94.6666 491.733 101.6C490 106.667 491.467 116.267 494.4 119.867C496.667 122.533 506 126.667 510.133 126.667C512.133 126.667 516.133 124.667 519.333 122.133L525.067 117.6L529.333 122.133C534 126.933 535.867 127.467 543.467 125.333C547.467 124.267 548.533 123.2 549.2 119.867C550.533 112.667 550.133 109.733 547.6 109.067C545.333 108.4 545.2 107.067 545.733 93.0666C546.4 76.4 545.067 71.3333 538.667 67.2C534.4 64.4 523.067 63.0666 514 64.2666Z" fill="#BC4749"/>
<path d="M330.533 66.5333C320.4 71.2 315.333 81.0666 315.333 96C315.333 116.533 324.267 126.533 342.667 126.667C364.4 126.667 374.267 116.533 374.4 94C374.533 81.0666 371.333 73.0666 363.733 68C357.067 63.4666 338.8 62.5333 330.533 66.5333ZM350 82.6666C350.8 84.1333 351.467 90.5333 351.467 96.9333C351.467 106 351.067 108.933 349.467 110.133C346.267 112.4 340.667 110.8 339.2 107.067C337.467 102.267 337.733 83.4666 339.6 81.6C342.133 79.0666 348.4 79.6 350 82.6666Z" fill="#BC4749"/>
<path d="M142.667 66.2667C140.133 66.8 140 67.8667 140 96V125.333H151.733H163.333V97.4667C163.333 82.1334 163.733 68.6667 164.133 67.4667C164.8 65.6 163.6 65.3334 155.2 65.4667C149.733 65.6 144.133 66 142.667 66.2667Z" fill="#BC4749"/>
<path d="M394.533 66.2667C391.867 66.8 391.867 67.4667 391.867 96L392 125.333H403.733H415.6L415.067 108.533L414.533 91.6L420.4 89.0667C424.133 87.3334 427.733 86.6667 430.133 87.2L434 87.8667V76.6667V65.3334H429.733C426.667 65.3334 424.4 66.6667 420.533 70.5334C417.867 73.4667 415.2 75.4667 414.8 75.0667C414.4 74.5334 414 72.2667 414 69.7334V65.3334L405.733 65.4667C401.067 65.6 396.133 66 394.533 66.2667Z" fill="#BC4749"/>
<path d="M452 66.2667C449.467 66.8 449.333 67.8667 449.333 96V125.333H461.067H472.667V99.4667C472.667 85.3334 473.067 71.7334 473.467 69.4667L474.4 65.3334L464.533 65.4667C459.067 65.6 453.467 66 452 66.2667Z" fill="#BC4749"/>
</svg>
